PathFileType	4	(X/Y/Z)	0_coords_data.trc
DataRate	CameraRate	NumFrames	NumMarkers	Units	OrigDataRate	OrigDataStartFrame	OrigNumFrames
30.0	30.0	6	21	m	30.0	62	72
Frame#	Time	THUMB_TIP	THUMB_IP	THUMB_MCP	THUMB_CMC	INDEX_TIP	INDEX_DIP	INDEX_PIP	INDEX_MCP	MIDDLE_TIP	MIDDLE_DIP	MIDDLE_PIP	MIDDLE_MCP	RING_TIP	RING_DIP	RING_PIP	RING_MCP	PINKY_TIP	PINKY_DIP	PINKY_PIP	PINKY_MCP	WRIST
X1	Y1	Z1	X2	Y2	Z2	X3	Y3	Z3	X4	Y4	Z4	X5	Y5	Z5	X6	Y6	Z6	X7	Y7	Z7	X8	Y8	Z8	X9	Y9	Z9	X10	Y10	Z10	X11	Y11	Z11	X12	Y12	Z12	X13	Y13	Z13	X14	Y14	Z14	X15	Y15	Z15	X16	Y16	Z16	X17	Y17	Z17	X18	Y18	Z18	X19	Y19	Z19	X20	Y20	Z20	X21	Y21	Z21
60	2.0333333333333243	0.5118374216172111	-0.05319057848565745	-0.15750041565695555	0.5032170009206256	-0.0469012947740064	-0.1371501513488872	0.47944614333874	-0.0440418645830426	-0.11726070719363946	0.4778737056059996	-0.03141978074692908	-0.07450441596988178	0.5574868527057133	0.028117124759716283	-0.18080920496623182	0.5440419409499038	0.023630876185100735	-0.16953499006650352	0.5261540580427462	0.016428266489167398	-0.1534056412988729	0.49916472572693793	0.0011986843922378032	-0.12419482370847063	0.5820139257664696	0.04362832425038077	-0.15450609889740885	0.5672228795988605	0.03806686918452884	-0.14565764305369427	0.54300777937656	0.03029110284784886	-0.13142472595630006	0.5087447453302377	0.013739445338158518	-0.1080103061979017	0.5880263425632417	0.04951537652958182	-0.12383761966502049	0.5723403219481723	0.04473800585273191	-0.1163459251517881	0.5503163552470873	0.0381392430141545	-0.10677611853149988	0.5193595273818998	0.017755320977360434	-0.09062398663125026	0.5891726744051498	0.04033152938446005	-0.08358982090888817	0.5727259796388988	0.038773000804525726	-0.07910905982049016	0.5524717568502635	0.03523334936295841	-0.07486060764345742	0.5227993752562282	0.01529610822340255	-0.0700710735031515	0.462283081001861	-0.023011742144276925	-0.051989820119430985
61	2.0666666666666575	0.512023328616527	-0.052937330686529394	-0.15748650386660112	0.5032788255377812	-0.04674216968051792	-0.1371603225721375	0.4794987401086984	-0.04397193193735005	-0.11726928640425899	0.47788904990298187	-0.03141958971278036	-0.07449385417828486	0.5579381973057986	0.027774233487580235	-0.18048942343913954	0.5443807947569135	0.02342056757635924	-0.1692982470371272	0.5263455758308615	0.016363343845872014	-0.15326901422619021	0.499158507264436	0.0012537009396679233	-0.12417953007793708	0.5821607058789671	0.04355117662612373	-0.15429979663794868	0.5673326053799362	0.03802910046476138	-0.14548877453726394	0.5430653599626063	0.03031248643161011	-0.13131258965844494	0.5087181884358258	0.013828609041156237	-0.10797374831431633	0.5880641120248934	0.049686516428189775	-0.12358762534111423	0.572373244434242	0.04486829257012637	-0.11613233238199883	0.5503383943625573	0.03823677397966796	-0.10661034086221777	0.5192797423464941	0.017929060984114842	-0.09055799642798185	0.5891158582905996	0.04069758656847322	-0.08325029615644886	0.5726627881941568	0.03902914284946435	-0.07883296891500119	0.5524088269542822	0.03540602834557127	-0.07465419943280516	0.522701972631785	0.015493301349960631	-0.06997770920398988	0.4622830810018609	-0.023011742144276925	-0.051989820119430985
62	2.0999999999999908	0.5122549328043678	-0.052564673244252735	-0.15748769165054505	0.5033812312503256	-0.046498240793663825	-0.13717868335244665	0.4795881243224005	-0.04386462822177828	-0.11728466044259922	0.47790994831433975	-0.03140543063317203	-0.07448463566767599	0.5582981264020233	0.027605600862029345	-0.18015632962919204	0.5446246302714985	0.02339057286415802	-0.1690536703736043	0.526456922207789	0.016450978980260378	-0.1531230001605094	0.49911173009429266	0.0013861005999371567	-0.12415878082592252	0.5822402098731876	0.043601820232748056	-0.15407500379875216	0.5673602698704735	0.038152624771901955	-0.14530610111112213	0.5430367577700888	0.030501332323748298	-0.131191072489994	0.5086605596828517	0.013977696667394346	-0.10792318924370115	0.5880400607436891	0.049912316332638595	-0.12331984188053396	0.5723336808952768	0.04508440982972162	-0.11590357928698447	0.5502683965195148	0.03847705568911153	-0.10643541813091445	0.5191686119075262	0.018153393058122913	-0.09048320924469178	0.5890191683383668	0.04102523664506097	-0.08293098831424728	0.5725594225689417	0.039313201928838915	-0.07855540762863111	0.5523016463263217	0.03564952855262438	-0.07443084485224338	0.5225892028566226	0.015717088297827364	-0.06987541078413562	0.4622830810018609	-0.023011742144276925	-0.05198982011943093
64	2.133333333333335	0.512349630753147	-0.05202590299030929	-0.15761463930284886	0.5034105184929867	-0.046120904356863	-0.13728674558167708	0.4796439950514959	-0.04367862129509237	-0.11733661733769685	0.47791277865411574	-0.031378321352460214	-0.07449276700761182	0.5585575996775007	0.027472066929765115	-0.17987230725294034	0.5447682873077356	0.023424552188235248	-0.16885085141506928	0.5264624812596279	0.016629258899733546	-0.153016354673704	0.49901027251569885	0.0015840270491475072	-0.12414329928218276	0.5822112278168456	0.043718297927955785	-0.15392907053012284	0.5672797213365368	0.03835710588915808	-0.1451936407094659	0.5429084617005551	0.03078633084020377	-0.1311176107679765	0.508552644391143	0.014182490041360962	-0.10787673710262152	0.5879443760238606	0.050140214756064005	-0.1231332564952613	0.5722169058288192	0.04534454627215767	-0.11574081136144043	0.5501219942249774	0.03879444747542782	-0.10630200497654718	0.5190333659979397	0.01840129716110217	-0.09041687201461213	0.5888869632391989	0.041297098694547674	-0.08264792683277922	0.5724198659791502	0.03961094366575524	-0.07828999279851762	0.5521533171354753	0.03594746334013832	-0.07420858019125032	0.5224683196286313	0.015943107382757282	-0.06979155441035978	0.4622830810018608	-0.023011742144276925	-0.05198982011943093
65	2.1666666666666683	0.5123809482980857	-0.05145543188043067	-0.15778131650322386	0.5034182142190952	-0.04571689012115665	-0.13741618610083328	0.47969216205184584	-0.043477356318288196	-0.11739422473580291	0.47791322203531217	-0.03134903680246637	-0.07450332548969585	0.5587863493607754	0.02733034001307877	-0.1796069129959741	0.5448834902042938	0.023456941874056225	-0.1686658301367846	0.5264411666570128	0.016816918462334685	-0.15292414584731928	0.4988945458389825	0.0017898893002268323	-0.12413164387078346	0.5821720369515595	0.0438000649811886	-0.15380475918365993	0.5671864537719511	0.03854388456543689	-0.14509816029522432	0.5427635938491429	0.031074028101143125	-0.13105769350833513	0.508432332365772	0.01439525988298429	-0.10783419039865427	0.5878493336856907	0.050322116423943464	-0.12296360465537637	0.5720945895340614	0.045585118082089426	-0.11559143513575876	0.5499640115260727	0.03911795270345175	-0.10617903544186136	0.5188964680314373	0.018645380812151058	-0.09035492803055806	0.5887627454085449	0.04149152053119132	-0.0823835716977746	0.572286807046958	0.039868982836424705	-0.07803491368244941	0.5520073930524119	0.03623626177473027	-0.07399007441175792	0.5223519716194245	0.016157627472956126	-0.06971364187896573	0.4622830810018608	-0.023011742144276925	-0.051989820119430985
66	2.200000000000002	0.5123472790386289	-0.05089880751578024	-0.1579742189749168	0.5034058036271584	-0.045321095325809524	-0.13755513123349394	0.47973194682003106	-0.043281497134734614	-0.1174501929571749	0.47791274922477767	-0.03132251687432697	-0.07451345680687349	0.5589732679710029	0.027188643525411504	-0.179378774059113	0.5449695390284776	0.023475013096320163	-0.1685111834917239	0.5264042821805281	0.016983415398572843	-0.1528523128268175	0.49877573504683226	0.0019790764057899812	-0.12412655280778917	0.5821227272894672	0.04385909253712783	-0.15370886741921092	0.5670894166996006	0.03870302814518223	-0.14502471100107128	0.5426190421869614	0.03133198856059427	-0.13101478249826948	0.508308988893904	0.014595054986270783	-0.10780178573877636	0.5877603609499491	0.05047100789863157	-0.12281366238973923	0.5719780876011529	0.04579825619275202	-0.11545939563913254	0.5498119874059735	0.03941786446475726	-0.10607139358679968	0.5187670103349213	0.018867723366897127	-0.0903036437943947	0.5886558722699449	0.041627745154948825	-0.08213615357652465	0.5721701727324493	0.0400827299033607	-0.07779626433464554	0.5518761290738345	0.03649410356262828	-0.0737855821023018	0.5222460621999953	0.016349030328591807	-0.06964811760733264	0.4622830810018608	-0.023011742144276925	-0.051989820119430985
